<svg width="20" height="21" viewBox="0 0 20 21" fill="none" xmlns="http://www.w3.org/2000/svg">
<path fill-rule="evenodd" clip-rule="evenodd" d="M1.66663 10.5003C1.66663 5.90033 5.39996 2.16699 9.99996 2.16699C14.6 2.16699 18.3333 5.90033 18.3333 10.5003C18.3333 15.1003 14.6 18.8337 9.99996 18.8337C5.39996 18.8337 1.66663 15.1003 1.66663 10.5003ZM10.8333 13.8337V15.5003H9.16663V13.8337H10.8333ZM9.99996 17.167C6.32496 17.167 3.33329 14.1753 3.33329 10.5003C3.33329 6.82533 6.32496 3.83366 9.99996 3.83366C13.675 3.83366 16.6666 6.82533 16.6666 10.5003C16.6666 14.1753 13.675 17.167 9.99996 17.167ZM6.66663 8.83366C6.66663 6.99199 8.15829 5.50033 9.99996 5.50033C11.8416 5.50033 13.3333 6.99199 13.3333 8.83366C13.3333 9.90276 12.6749 10.4781 12.0339 11.0383C11.4258 11.5697 10.8333 12.0875 10.8333 13.0003H9.16663C9.16663 11.4826 9.95173 10.8808 10.642 10.3517C11.1835 9.93666 11.6666 9.56634 11.6666 8.83366C11.6666 7.91699 10.9166 7.16699 9.99996 7.16699C9.08329 7.16699 8.33329 7.91699 8.33329 8.83366H6.66663Z" fill="#212121" fill-opacity="0.8"/>
</svg>
